# xmcd
#
# Track frame offsets:
#	150
#	17642
#	36245
#	55174
#	75226
#	94266
#	105389
#	124251
#	144827
#	160881
#	178755
#	196871
#	218343
#	239669
#	265625
#
# Disc length: 3825 seconds
#
# Revision: 0
# Processed by: cddbd v1.5.1PL0 Copyright (c) Steve Scherf et al.
# Submitted via: dBpowerAMP V4.0
#
DISCID=bc0eef0f
DTITLE=Johnny Hiland - Red Hot and Rippin'
DYEAR=2003
DGENRE=Country
TTITLE0=Fooling Around
TTITLE1=Swingin' The Strings
TTITLE2=In Your Face
TTITLE3=Truth Hurts
TTITLE4=Nuclear Chicken
TTITLE5=Cudge Boogie
TTITLE6=Chicken Funk
TTITLE7=Tonal Immersion
TTITLE8=J-Hi Boogie
TTITLE9=Celtic Country
TTITLE10=Spank
TTITLE11=Gatton To It
TTITLE12=Stompin' It
TTITLE13=Breezes
TTITLE14=Orange Blossom Special
EXTD=
EXTT0=
EXTT1=
EXTT2=
EXTT3=
EXTT4=
EXTT5=
EXTT6=
EXTT7=
EXTT8=
EXTT9=
EXTT10=
EXTT11=
EXTT12=
EXTT13=
EXTT14=
PLAYORDER=
